<svg xmlns="http://www.w3.org/2000/svg" xmlns:xlink="http://www.w3.org/1999/xlink" fill="none" version="1.1" width="2048" height="2048" viewBox="0 0 2048 2048"><defs><clipPath id="master_svg0_15_3"><rect x="-82" y="-82" width="2212" height="2212" rx="182"/></clipPath></defs><g clip-path="url(#master_svg0_15_3)"><rect x="0" y="0" width="2048" height="2048" rx="100" fill="#F7F4ED" fill-opacity="1"/><g transform="matrix(0.10000000149011612,0,0,-0.10000000149011612,374.3999993801117,1818.4546899633715)"><path d="M4739.86181640625,14224.8837890625C4626.86181640625,14186.8837890625,4539.86181640625,14111.8837890625,4490.86181640625,14007.8837890625C4462.86181640625,13949.8837890625,4459.86181640625,13932.8837890625,4459.86181640625,13852.8837890625C4459.86181640625,13779.8837890625,4464.86181640625,13751.8837890625,4485.86181640625,13702.8837890625C4656.86181640625,13293.8837890625,5372.86181640625,12874.8837890625,6064.86181640625,12778.8837890625C6194.86181640625,12760.8837890625,6275.86181640625,12757.8837890625,6839.86181640625,12754.8837890625C7316.86181640625,12751.8837890625,7481.86181640625,12754.8837890625,7517.86181640625,12763.8837890625C7651.86181640625,12798.8837890625,7762.86181640625,12918.8837890625,7796.86181640625,13067.8837890625C7810.86181640625,13130.8837890625,7795.86181640625,13235.8837890625,7763.86181640625,13300.8837890625C7716.86181640625,13391.8837890625,7632.86181640625,13464.8837890625,7534.86181640625,13497.8837890625C7469.86181640625,13519.8837890625,7469.86181640625,13519.8837890625,6879.86181640625,13512.8837890625C6363.86181640625,13506.8837890625,6274.86181640625,13507.8837890625,6173.86181640625,13521.8837890625C5971.86181640625,13549.8837890625,5821.86181640625,13596.8837890625,5619.86181640625,13692.8837890625C5443.86181640625,13776.8837890625,5334.86181640625,13856.8837890625,5226.86181640625,13981.8837890625C5083.86181640625,14146.8837890625,5043.86181640625,14182.8837890625,4978.86181640625,14207.8837890625C4906.86181640625,14234.8837890625,4795.86181640625,14242.8837890625,4739.86181640625,14224.8837890625Z" fill="#ED5126" fill-opacity="1" style="mix-blend-mode:passthrough"/><path d="M4859.20406640625,14315.0503890625Q4942.48306640625,14309.1018890625,5007.65392640625,14284.6628890625L5008.29809640625,14284.4180890625Q5041.27502640625,14271.7345890625,5068.4358564062495,14254.7310890625Q5097.39709640625,14236.6003890625,5128.79192640625,14208.039789062499Q5157.5197764062505,14181.9054890625,5197.19958640625,14138.8857890625Q5232.04467640625,14101.1076890625,5288.91015640625,14035.4934890625Q5363.79882640625,13948.8168890625,5446.42779640625,13888.0795890625Q5530.06221640625,13826.6032890625,5655.0594164062495,13766.9453890625Q5802.0738164062495,13697.0772090625,5921.11751640625,13660.2142290625Q6041.04251640625,13623.0783690625,6185.12051640625,13603.1071790625Q6222.3467164062495,13597.9471390625,6259.48441640625,13595.5584690625Q6303.21251640625,13592.7459690625,6372.26821640625,13591.8773190625Q6491.6678164062505,13590.3754290625,6878.888916406249,13594.8780490625Q7137.180916406251,13597.9425090625,7221.34571640625,13598.5845290625Q7348.57401640625,13599.5549890625,7406.114216406249,13598.2373090625Q7468.078816406251,13596.8182990625,7501.2217164062495,13591.4307890625Q7526.28221640625,13587.3571190625,7561.03031640625,13575.5961890625Q7649.49971640625,13545.8054190625,7722.04731640625,13483.2244890625Q7794.06151640625,13421.1036990625,7837.42971640625,13337.1018690625Q7867.239216406249,13276.5510890625,7878.79731640625,13195.1630890625Q7890.63011640625,13111.8401190625,7876.80691640625,13049.6412990625Q7861.80641640625,12983.9039490625,7830.29081640625,12924.1780990625Q7799.42871640625,12865.6906890625,7755.21391640625,12817.6213230625Q7710.69851640625,12769.2251430625,7656.474816406249,12735.5416110625Q7600.35331640625,12700.6791080625,7537.74971640625,12684.3321070625Q7516.22191640625,12678.9501720625,7468.203816406251,12676.3763350625Q7424.1003164062495,12674.0123290625,7345.40401640625,12672.8920970625Q7190.00511640625,12670.6800160625,6839.425516406251,12672.8849490625Q6419.59431640625,12675.1180950625,6287.0266164062505,12679.2995530625Q6209.12751640625,12681.7566530625,6154.75021640625,12686.2391050625Q6108.63651640625,12690.0403820625,6053.59401640625,12697.6616440625Q5790.61461640625,12734.1443250625,5522.88221640625,12828.9458850625Q5264.88720640625,12920.2995190625,5038.5716564062495,13052.7360190625Q4810.52557640625,13186.1851790625,4650.50314640625,13340.4216290625Q4479.69459540625,13505.0541390625,4410.49192040625,13670.5823990625Q4390.91842640625,13716.2539090625,4384.20278940625,13754.8145890625Q4377.86181640625,13791.2240890625,4377.86181640625,13852.8837890625Q4377.86181640625,13887.5010890625,4378.87986740625,13906.9767890625Q4380.26847840625,13933.5414890625,4384.41842640625,13954.5353890625Q4388.82070940625,13976.8057890625,4397.64323440625,13999.8096890625Q4404.34687440625,14017.2887890625,4416.68285340625,14042.8334890625Q4460.67052459625,14136.1950890625,4537.57341040625,14203.0273890625Q4613.29670640625,14268.8344890625,4714.7690564062505,14302.9501890625Q4771.83053640625,14321.2913890625,4859.20406640625,14315.0503890625ZM4981.4127764062505,14115.7239890625Q4967.77404640625,14124.2622890625,4949.75445640625,14131.2226890625Q4906.90432640625,14147.2254890625,4847.51956640625,14151.4671890625Q4819.74264640625,14153.4511890625,4796.43548640625,14151.818589062499Q4776.07729640625,14150.3925890625,4764.95455640625,14146.8173890625Q4696.35708640625,14123.7414890625,4645.15022640625,14079.2401890625Q4594.31091640625,14035.0584890625,4565.04077640625,13972.9340890625Q4548.42252340625,13938.5020890625,4545.30520640625,13922.7321890625Q4541.86181640625,13905.3125890625,4541.86181640625,13852.8837890625Q4541.86181640625,13805.3982890625,4545.77084340625,13782.9528890625Q4549.20108840625,13763.2566890625,4561.23171640625,13735.1851790625Q4617.92181640625,13599.6014390625,4764.31423640625,13458.5021990625Q4910.24612640625,13317.8468590625,5121.4019764062505,13194.2815590625Q5334.29150640625,13069.7017190625,5577.62271640625,12983.5404390625Q5829.65121640625,12894.2994490625,6076.12961640625,12860.1059390625Q6126.63381640625,12853.1130520625,6168.22341640625,12849.6847230625Q6218.45521640625,12845.5439910625,6292.1970164062495,12843.2180250625Q6422.61601640625,12839.1043400625,6840.298116406249,12836.8826290625Q7456.26661640625,12833.0086440625,7497.97391640625,12843.4354710625Q7534.89571640625,12853.0839000625,7569.936316406251,12874.8509690625Q7605.147216406251,12896.7238290625,7634.50971640625,12928.6462590625Q7664.316116406249,12961.0511190625,7685.24531640625,13000.7144790625Q7706.70821640625,13041.3892790625,7716.91671640625,13086.1262790625Q7724.06641640625,13118.3055990625,7716.42631640625,13172.1044890625Q7708.54661640625,13227.5898090625,7690.29391640625,13264.6657090625Q7662.9106164062505,13317.650819062499,7614.92631640625,13359.0430890625Q7566.710416406249,13400.6350090625,7508.69331640625,13420.1713890625Q7486.56641640625,13427.6604590625,7474.90821640625,13429.5555390625Q7452.97291640625,13433.1211590625,7402.359416406251,13434.2802690625Q7347.321516406249,13435.5407090625,7222.5967164062495,13434.5892990625Q7138.79301640625,13433.9500690625,6880.834716406251,13430.8895290625Q6491.58751640625,13426.3634690625,6370.20541640625,13427.8902590625Q6296.91371640625,13428.8121990625,6248.95801640625,13431.8966090625Q6205.80331640625,13434.6722390625,6162.60311640625,13440.6603990625Q6005.29221640625,13462.4658790625,5872.60611640625,13503.5533490625Q5742.31391640625,13543.8994790625,5584.6642164062505,13618.8221390625Q5445.42571640625,13685.2767290625,5349.29583640625,13755.9379890625Q5251.78094640625,13827.6172890625,5164.81347640625,13928.2740890625Q5061.23028640625,14047.7929890625,5018.43170640625,14086.727789062501Q4997.91223640625,14105.3947890625,4981.4127764062505,14115.7239890625Z" fill-rule="evenodd" fill="#000000" fill-opacity="1"/><path d="M12121.861,12376.883834375C12077.861,12366.883834375,12027.861,12341.883834375,11919.861,12276.883834375C11739.861,12168.883784375,11550.861,12092.883784375,11346.861,12045.883784375L11249.861,12022.883784375L6529.8618,12020.883784375L1809.8618,12017.883784375L1700.8618,12037.883784375C1568.8618,12063.883784375,1388.86182,12116.883784375,1299.86182,12157.883784375C1263.86182,12173.883784375,1230.86182,12187.883784375,1226.86182,12187.883784375C1222.86182,12187.883784375,1160.86182,12220.883784375,1088.86182,12260.883834375C905.8618200000001,12362.883834375,881.8618200000001,12370.883834375,776.8618200000001,12365.883834375C667.86182,12359.883834375,598.86182,12329.883834375,526.86182,12256.883834375C452.861816,12182.883784375,422.8618164,12112.883784375,416.86181641,12006.883784375C411.8618164,11902.883784375,427.861816,11844.883784375,484.861816,11765.883784375C536.86182,11692.883784375,611.86182,11642.883784375,826.8618200000001,11537.883784375C1160.86182,11374.883784375,1499.8618,11275.883789375,1814.8618,11248.883789075C1916.8618,11240.883789075,10872.861,11243.883789065,11139.861,11251.883789075C11499.861,11263.883789375,11966.861,11413.883784375,12339.861,11638.883784375C12456.861,11708.883784375,12508.861,11757.883784375,12546.861,11835.883784375C12577.861,11897.883784375,12579.861,11909.883784375,12579.861,12002.883784375C12579.861,12091.883784375,12576.861,12109.883784375,12551.861,12162.883784375C12521.861,12227.883784375,12461.861,12295.883834375,12401.861,12333.883834375C12330.861,12379.883834375,12212.861,12397.883834375,12121.861,12376.883834375Z" fill="#ED5126" fill-opacity="1" style="mix-blend-mode:passthrough"/><path d="M12446.109,12402.921834375Q12446.217,12402.852534375,12446.448,12402.702534375Q12501.145,12367.906034375,12549.711,12312.633834375Q12598.893,12256.660134375,12626.024,12197.866514375Q12637.696,12173.122984375,12643.923,12155.851504375Q12652.03,12133.363894375,12656.021,12110.452944375Q12659.677,12089.461604375,12660.92,12061.639164375Q12661.861,12040.577944375,12661.861,12002.883784375Q12661.861,11962.449464375,12660.984,11942.646664375Q12659.703,11913.713924375,12655.462,11892.023254375Q12650.874,11868.561954375,12641.165,11844.438414375Q12634.346,11827.495304375,12620.578,11799.970274375Q12585.672,11728.320254375,12529.458,11674.928104375Q12477.778,11625.842494375,12382.216,11568.669224375Q12239.551,11482.611354375,12079.31,11410.417904375Q11922.449,11339.747566375,11760.129,11287.458541375Q11597.625,11235.110311475,11442.261,11205.248367375Q11282.824,11174.603675375,11142.593,11169.929306375L11141.293,11169.885978375L6479.894,11162.405517375L1811.3147,11166.887161375L1807.8589,11167.183364375Q1563.3097,11188.144729375,1304.97443,11263.679084375Q1047.50769,11338.959488375,790.87732,11464.201264375Q624.69424,11545.360444375,549.2514,11595.655674375Q505.427963,11624.871304375,473.924538,11654.400544375Q442.848385,11683.529294375,418.36392969999997,11717.904294375Q367.222878,11788.783994375,348.667992,11854.830564374999Q330.55632,11919.299504375,334.992867,12011.517884375Q340.34945700000003,12106.151004375,371.236916,12176.750914375Q402.716324,12248.703834375,468.480568,12314.465334375Q533.56683,12380.455534375,605.2309700000001,12411.682234375Q675.8345899999999,12442.446934375,772.96149,12447.791034375Q821.33786,12450.094634375,850.92023,12447.652734375Q890.68146,12444.370434375,929.75061,12431.231234375Q965.02112,12419.369434375,1014.74646,12394.165734375Q1052.46411,12375.048334375,1128.68451,12332.564734375Q1183.34521,12302.197634375,1221.7619,12281.836834375Q1240.0347299999999,12272.152234375,1250.16327,12267.130134375Q1251.65192,12266.392034375,1252.815,12265.826934375Q1257.94403,12264.352334375,1263.37286,12262.341634375Q1270.97937,12259.524434375,1282.7987699999999,12254.618334375Q1302.6665600000001,12246.371234375,1334.1715100000001,12232.360964375Q1394.6976300000001,12204.478154375,1507.6379,12170.848754375Q1620.0483,12137.377134375,1715.6606,12118.537354375L1817.2966,12099.888554375L6529.8271,12102.883784375L11240.256,12104.879764375L11328.451,12125.790464375Q11620.991,12193.189454375,11877.577,12347.140734375Q11961.905,12397.894034375,12008.423,12420.968034375Q12061.353,12447.223034375,12103.423,12456.783834375Q12187.049,12476.082034375,12281.784,12461.562234375Q12377.968,12446.820534375,12445.737,12403.161834375Q12445.956,12403.021134375,12446.109,12402.921834375ZM1246.96936,12267.356434375Q1236.20917,12269.883834375,1226.86182,12269.883834375Q1237.34375,12269.883834375,1246.96936,12267.356434375ZM12426.512,12204.383784375Q12393.177,12242.321774375,12357.987,12264.608634375L12357.274,12265.065034375Q12318.837,12289.968334375,12256.938,12299.455334375Q12193.285,12309.211134375,12140.3,12296.983734375Q12116.739,12291.628434375,12081.3,12274.049534375Q12040.755,12253.937834375,11962.146,12206.626834375Q11683.107,12039.204104375,11365.271,11965.977114375L11259.467,11940.887814375L6529.8965,11938.883784375L1802.427,11935.879024375L1686.063,11957.230224375Q1580.7124,11977.974064375,1460.8357,12013.668824375Q1336.6929300000002,12050.633854375,1265.5521199999998,12083.406614375Q1237.91412,12095.682064375,1219.92487,12103.149294375Q1211.33636,12106.714354375,1206.72516,12108.434934375Q1198.2785,12110.538514374999,1189.59283,12114.376704375Q1184.6455700000001,12116.562924375,1177.31036,12120.199954375Q1165.19507,12126.207154375,1144.96173,12136.930784375Q1105.11743,12158.048274375,1049.03912,12189.202884375Q975.44,12230.225284375,940.60217,12247.883034375Q901.47867,12267.713034375,877.4730500000001,12275.786334375Q857.30981,12282.567534375,837.42841,12284.208634375Q818.4808,12285.772734375,780.76215,12283.976534375Q714.30255,12280.315934375,670.74266,12261.335334375Q628.09979,12242.754274375,585.24307,12199.302304375Q540.56287,12154.619264375,521.48672,12111.016664375Q502.420609,12067.437014375,498.730766,12002.249694375Q495.645805,11938.020814375,506.555641,11899.187014375Q517.2417399999999,11861.149594375,551.35971,11813.863284375Q566.93597,11791.999204375,586.08035,11774.054504375Q607.68622,11753.802584375,640.22223,11732.111904375Q706.52936,11687.907134375,862.84631,11611.566314375Q1106.9097900000002,11492.457524375,1350.99921,11421.088504375Q1591.8053,11350.679464375,1818.4423,11330.880386375L6480.0513,11326.405441375L11138.411,11333.881569375Q11265.24,11338.225868375,11411.306,11366.300464375Q11556.854,11394.275834375,11709.844,11443.559034375001Q11863.439,11493.037784375,12011.944,11559.943424375Q12163.241,11628.107234375,12297.507,11709.098354375Q12377.999,11757.256954375,12416.515,11793.839474375Q12451.228,11826.810244375,12473.145,11871.797304375Q12484.688,11894.894654375,12489.026,11905.672914375Q12492.915,11915.335444375,12494.511,11923.494324375Q12497.861,11940.630184375,12497.861,12002.883784375Q12497.861,12062.739384375,12494.452,12082.314634375Q12491.673,12098.275874375,12477.698,12127.901064375Q12459.969,12166.306514375,12426.512,12204.383784375ZM1210.1679100000001,12107.647524375Q1218.63617,12105.883784375,1226.86182,12105.883784375Q1217.95526,12105.883784375,1210.1679100000001,12107.647524375Z" fill-rule="evenodd" fill="#000000" fill-opacity="1"/><path d="M2968.86181328125,10446.8837890625C2873.86181328125,10439.8837890625,2801.86181328125,10403.8837890625,2731.86181328125,10327.8837890625C2657.86181628125,10248.8837890625,2631.86181638125,10180.8837890625,2630.86181640125,10067.8837890625C2629.86181640125,9990.8837890625,2632.86181638125,9975.8837890625,2661.86181628125,9916.8837890625C2701.86181628125,9836.8837890625,2782.86181328125,9756.8837890625,2860.86181328125,9720.8837890625L2915.86181328125,9695.8837890625L6449.86181328125,9696.8837890625C8393.86181328125,9696.8837890625,9996.86181328125,9700.8837890625,10011.86181328125,9703.8837890625C10131.86181328125,9732.8837890625,10249.86181328125,9862.8837890625,10274.86181328125,9991.8837890625C10308.86181328125,10170.8837890625,10220.86181328125,10341.8837890625,10054.86181328125,10421.8837890625L9989.86181328125,10452.8837890625L6514.86181328125,10452.8837890625C4603.86181328125,10452.8837890625,3007.86181328125,10450.8837890625,2968.86181328125,10446.8837890625Z" fill="#ED5126" fill-opacity="1" style="mix-blend-mode:passthrough"/><path d="M2965.77557328125,10528.8786590625L6514.72311328125,10534.8836690625L6514.86181328125,10534.8837890625L10008.41451328125,10534.8837890625L10090.46141328125,10495.7530490625Q10163.99221328125,10460.3166490625,10221.09131328125,10405.0267990625Q10277.45361328125,10350.4508090625,10312.836913281251,10281.4070390625Q10348.32081328125,10212.1678490625,10359.35061328125,10134.9292890625Q10370.572313281249,10056.3476290625,10355.36381328125,9976.2825890625Q10343.797413281249,9916.5989990625,10312.41361328125,9857.8851290625Q10282.88911328125,9802.6495190625,10239.58981328125,9755.1452860625Q10195.941413281249,9707.2579380625,10144.52781328125,9674.0787960625Q10088.80271328125,9638.1173510625,10031.124013281249,9624.1782760625L10021.70901328125,9621.9029850625L6449.8850132812495,9614.8837970625L2898.1109332812503,9613.8787690625L2826.49905328125,9646.4311220625Q2755.07142328125,9679.3977240625,2689.54769128125,9743.9854010625Q2624.64395518125,9807.9619390625,2588.27102628125,9880.7120390625Q2575.15522428125,9907.3959090625,2568.46289828125,9924.1989490625Q2559.25972028125,9947.3061990625,2554.77951028125,9969.1801790625Q2550.47087828125,9990.2164290625,2549.28894828125,10016.4055790625Q2548.43273928125,10035.3773790625,2548.86502828125,10068.6094390625Q2549.74920628125,10168.5220290625,2577.51876028125,10240.2418190625Q2605.77915528125,10313.2293090625,2671.54711928125,10383.4368290625Q2734.15006328125,10451.4057590625,2804.22046328125,10486.5543190625Q2875.30694328125,10522.2125890625,2962.83606328125,10528.6621090625L2965.77557328125,10528.8786590625ZM9971.30911328125,10370.8837890625L6514.86181328125,10370.8837890625L2972.10824328125,10364.8891590625Q2918.71750328125,10360.5116590625,2877.75317328125,10339.9632590625Q2834.47383328125,10318.2535390625,2792.17651328125,10272.3307490625Q2747.22512328125,10224.3378890625,2730.45487228125,10181.0257290625Q2713.47827128125,10137.1806690625,2712.85860428125,10067.1581390625Q2712.21875028125,10017.8348390625,2715.44412228125,10002.0873990625Q2718.36734028125,9987.8152190625,2735.45260328125,9953.0555390625Q2759.15715328125,9905.6506990625,2804.67593328125,9860.7821790625Q2849.80209328125,9816.3006790625,2895.22458328125,9795.3364560625L2933.61175328125,9777.8888090625L6449.83861328125,9778.8837810625L10000.999013281249,9785.8626020625Q10027.66311328125,9793.8460920625,10055.60201328125,9811.8762790625Q10089.09811328125,9833.4926290625,10118.383813281249,9865.6222790625Q10147.90041328125,9898.0050790625,10167.77881328125,9935.1949490625Q10187.500513281251,9972.0914590625,10194.359813281251,10007.4849890625Q10204.36421328125,10060.1603990625,10196.998013281249,10111.7445390625Q10189.84961328125,10161.8034990625,10166.88671328125,10206.6105390625Q10143.877913281249,10251.5071990625,10107.00731328125,10287.2095290625Q10068.93411328125,10324.0762890625,10019.26221328125,10348.0145290625L9971.30911328125,10370.8837890625Z" fill-rule="evenodd" fill="#000000" fill-opacity="1"/><path d="M2905.861820625,8891.8837890625C2843.861820625,8869.8837890625,2796.861820625,8837.8837890625,2748.861820625,8785.8837890625C2634.861816405,8661.8837890625,2604.861816625,8510.8837890625,2668.861816625,8372.8837890625C2719.861816625,8259.8837890625,2793.861820625,8193.8837890625,2913.861820625,8151.8837890625L2978.861820625,8128.8837890625L6469.861790625,8133.8837890625C10246.861790625,8139.8837890625,9993.861790625,8135.8837890625,10088.861790625,8191.8837890625C10146.861790625,8225.8837890625,10211.861790625,8298.8837890625,10242.861790625,8365.8837890625C10266.861790625,8416.8837890625,10269.861790625,8434.8837890625,10269.861790625,8527.8837890625C10269.861790625,8625.8837890625,10267.861790625,8636.8837890625,10237.861790625,8693.8837890625C10196.861790625,8771.8837890625,10130.861790625,8838.8837890625,10056.861790625,8874.8837890625L9999.861790625,8902.8837890625L6474.861790625,8904.8837890625C3311.861820625,8906.8837890625,2944.861820625,8905.8837890625,2905.861820625,8891.8837890625Z" fill="#ED5126" fill-opacity="1" style="mix-blend-mode:passthrough"/><path d="M3518.5701306250003,8986.3832990625Q4084.262590625,8988.3954490625,6474.908490625,8986.8837890625L6474.913590624999,8986.8837890625L10018.936990625,8984.8729890625L10092.733890625,8948.6210890625Q10160.333990625,8915.7346190625,10217.836390625,8857.9992690625Q10273.736290625,8801.8728590625,10310.425290625,8732.0750090625Q10324.492190625,8705.3476590625,10331.213890625,8689.2111790625Q10341.058090625,8665.5776990625,10345.639690625001,8641.7274190625Q10349.769990625,8620.2246990625,10351.009290625,8590.5732990625Q10351.861790625,8570.1732490625,10351.861790625,8527.8837890625Q10351.861790625,8488.7882690625,10350.945290625,8467.0540190625Q10349.748090625,8438.6658290625,10346.246090625,8417.6530790625Q10342.387690625,8394.5034190625,10334.491690625,8372.2323190625Q10328.430690625,8355.1375090625,10317.281690625001,8331.4505890625Q10289.042990625,8270.4183090625,10237.342790625,8212.1080930625Q10185.215790625,8153.3162500625,10130.501990625,8121.2435378625Q10127.669390625,8119.5739126625,10121.760290625,8115.3723410625Q10098.450190625,8098.7986180625,10076.423290625,8090.8753050625Q10049.121090625,8081.0543250625,10003.310090625,8075.8576050625Q9918.682090625,8066.2575720625,9660.373490625,8062.1274640625Q9405.516590625,8058.0525510625,8792.034690625,8056.1119540625Q8383.331090625,8054.8191220625,7114.879390625,8052.8826290625Q6699.5480906249995,8052.2485580625,6469.979290625,8051.8838730625L2964.838870625,8046.8636170624995L2886.773090625,8074.4874040625Q2780.984130625,8111.5135420625,2710.642265625,8174.7991680625Q2639.349411025,8238.9403790625,2594.472381625,8338.3843390625Q2565.228004625,8401.4425390625,2556.954994625,8468.0959790625Q2548.742492625,8534.2619590625,2561.628280625,8600.3309290625Q2587.139480625,8731.1338490625,2688.607932625,8841.5027490625Q2731.176437625,8887.6186490625,2776.166440625,8918.0530390625Q2822.241200625,8949.2212490625,2878.156910625,8969.0617690625Q2896.737180625,8975.7316290625,2935.090390625,8978.3530890625Q2967.857820625,8980.5927690625,3033.309840625,8982.0813590625Q3167.5679906249998,8985.1348290625,3518.5701306250003,8986.3832990625ZM9980.787090625,8820.8945890625L6474.8151906250005,8822.8837890625L6474.810090625,8822.8837890625Q4084.510790625,8824.3951990625,3519.153500625,8822.3842790625Q3169.723270625,8821.1413590625,3037.038790625,8818.1237190625Q2975.317870625,8816.7199690625,2946.273860625,8814.7347990625Q2935.277470625,8813.9832190625,2929.437290625,8813.2109390625Q2895.178070625,8800.5610390625,2868.057190625,8782.2145390625Q2838.800200625,8762.4230390625,2809.115690625,8730.2648290625Q2739.235320625,8654.2543290625,2722.595352625,8568.9366490625Q2706.529754625,8486.5639690625,2743.251250625,8407.3832390625Q2774.655070625,8337.8127490625,2820.331360625,8296.7184190625Q2866.214810625,8255.4376790625,2940.950560625,8229.2801790625L2992.884490625,8210.9039530625L6469.744390625,8215.8837050625Q6699.2692906249995,8216.2483140625,7114.629390625,8216.8824310625Q8382.944290625,8218.8187180625,8791.516090625,8220.1111300625Q9403.946290625001,8222.0483930625,9657.751490625,8226.1064990625Q9908.103490624999,8230.1093890625,9984.824690624999,8238.8124890625Q10011.619190624999,8241.8520190625,10020.912590625001,8245.1949290625Q10021.759790625001,8245.4995990625,10026.727090625,8249.0315090625Q10038.345690625,8257.2923290625,10047.220690625,8262.5240490625Q10079.794890625,8281.6193690625,10114.630890625,8320.9094890625Q10150.331090625,8361.1739490625,10168.441890625,8400.3169890625Q10176.578590625,8417.6120890625,10179.919390625,8427.0352790625Q10182.992190625,8435.7016890625,10184.477490625,8444.6144990625Q10187.861790625,8464.9201690625,10187.861790625,8527.8837890625Q10187.861790625,8593.7261990625,10184.583990625,8610.7901890625Q10183.183590625,8618.0806590625,10179.822290625001,8626.1501490625Q10175.934090625,8635.4850790625,10165.298290625,8655.6925690625Q10140.079090625,8703.6705890625,10101.637190624999,8742.2683090625Q10063.681590625001,8780.3773790625,10020.989790625,8801.1464890625L9980.787090625,8820.8945890625Z" fill-rule="evenodd" fill="#000000" fill-opacity="1"/><path d="M2943.86181640625,7308.883825C2812.86181640625,7266.883825,2699.86181640625,7151.883825,2646.86181640625,7004.883825L2619.86181640625,6932.883825L2623.86181640625,5517.883825C2626.86181640625,4015.883825,2626.86181640625,3999.883825,2674.86181640625,3789.883825C2743.86181640625,3490.883825,2876.86181640625,3210.883825,3078.86181640625,2942.883825C3156.86181640625,2839.883825,3395.86181640625,2599.883785,3504.86181640625,2515.883785C3682.86181640625,2379.883785,3941.86181640625,2224.883785,4160.86181640625,2124.883785C4638.86181640625,1906.883785,5280.86181640625,1742.883789,5893.86181640625,1682.883789C6495.86181640625,1623.883789,7098.86181640625,1652.88378906,7640.86181640625,1767.883785C7694.86181640625,1778.883785,7753.86181640625,1791.883785,7769.86181640625,1794.883785C7851.86181640625,1810.883785,8151.86181640625,1892.883785,8258.86181640625,1929.883785C8833.86181640625,2122.883785,9280.86181640625,2378.883785,9617.86181640625,2707.883825C9820.86181640625,2904.883825,9971.86181640625,3103.883825,10069.86181640625,3302.883825C10130.86181640625,3427.883825,10207.86181640625,3641.883825,10237.86181640625,3772.883825C10295.86181640625,4019.883825,10295.86181640625,4003.883825,10292.86181640625,5537.883825L10289.86181640625,6942.883825L10264.86181640625,7007.883825C10205.86181640625,7156.883825,10100.86181640625,7265.883825,9976.86181640625,7305.883825L9908.86181640625,7327.883825L6453.86181640625,7326.883825C3171.86181640625,7326.883825,2996.86181640625,7325.883825,2943.86181640625,7308.883825ZM9374.86181640625,6531.883825C9426.86181640625,6507.883825,9487.86181640625,6444.883825,9509.86181640625,6391.883825C9522.86181640625,6360.883825,9524.86181640625,6213.883825,9525.86181640625,5253.883825C9526.86181640625,4441.883825,9523.86181640625,4135.883825,9515.86181640625,4087.883825C9463.86181640625,3805.883825,9377.86181640625,3608.883825,9218.86181640625,3411.883825C8971.86181640625,3105.883825,8525.86181640625,2832.883825,7975.86181640625,2651.883785C7161.86181640625,2383.883785,6165.86181640625,2355.883785,5239.86181640625,2572.883785C5030.86181640625,2621.883785,4877.86181640625,2670.883825,4674.86181640625,2752.883825C4260.86181640625,2919.883825,3906.86181640625,3150.883825,3721.86181640625,3373.883825C3553.86181640625,3575.883825,3426.86181640625,3861.883825,3395.86181640625,4105.883825C3389.86181640625,4148.883825,3382.86181640625,4650.883825,3378.86181640625,5253.883825C3372.86181640625,6257.883825,3373.86181640625,6328.883825,3389.86181640625,6377.883825C3420.86181640625,6469.883825,3492.86181640625,6532.883825,3584.86181640625,6545.883825C3608.86181640625,6549.883825,4911.86181640625,6552.883825,6479.86181640625,6552.883825L9329.86181640625,6552.883825L9374.86181640625,6531.883825Z" fill="#ED5126" fill-opacity="1" style="mix-blend-mode:passthrough"/><path d="M3487.56402640625,7406.257825Q3996.8630164062497,7408.883825,6453.83811640625,7408.883825L6453.86181640625,7408.883825L9921.78471640625,7409.887725L10002.036116406249,7383.923825Q10114.49221640625,7347.647425,10204.22511640625,7254.718225Q10290.83251640625,7165.025425,10341.39601640625,7037.320325L10371.82911640625,6958.193825L10374.86181640625,5538.044225L10374.86231640625,5537.890425L10374.86231640625,5537.736525L10374.86281640625,5537.582725L10374.86281640625,5537.428925L10374.86331640625,5537.275125L10374.86381640625,5537.121625L10374.86381640625,5536.968025L10374.86471640625,5536.660425L10374.86471640625,5536.506325L10374.86521640625,5536.352825L10374.86521640625,5536.199225L10374.86571640625,5536.045425L10374.86621640625,5535.892125L10374.86621640625,5535.738025000001L10374.86671640625,5535.584425Q10376.16401640625,4872.276125,10375.70211640625,4655.170425Q10375.00781640625,4328.6687249999995,10370.39701640625,4176.682325Q10365.689916406249,4021.515425,10353.31301640625,3931.225625Q10347.62601640625,3889.736825,10338.45601640625,3845.618125Q10332.87061640625,3818.744425,10319.450716406249,3761.632525L10317.79251640625,3754.579125Q10294.35741640625,3652.2464250000003,10242.68411640625,3507.982625Q10191.61281640625,3365.400525,10143.42531640625,3266.6565250000003Q9989.66891640625,2954.437125,9675.14401640625,2649.208805Q9414.872516406249,2395.115785,9068.354516406249,2196.721805Q8723.77241640625,1999.436125,8285.66011640625,1852.386325Q8204.70991640625,1824.394145,8026.73191640625,1775.444585Q7851.70751640625,1727.307343,7786.70651640625,1714.632607L7674.85351640625,1691.155197L7657.88131640625,1687.669502Q7245.31101640625,1600.1314849999999,6793.83491640625,1578.230103Q6343.76831640625,1556.397079,5885.873816406251,1601.273781Q5420.19901640625,1646.8536911,4956.46341640625,1765.179465Q4729.16721640625,1823.175855,4520.50021640625,1894.722935Q4308.61221640625,1967.374425,4126.80171640625,2050.292175Q3959.25891640625,2126.795745,3775.46801640625,2236.4677149999998Q3592.98101640625,2345.361575,3454.80798640625,2450.932985Q3412.33190640625,2483.666805,3347.69384640625,2543.274905Q3288.10790640625,2598.223995,3222.16705640625,2664.363125Q3156.42303640625,2730.304925,3102.53430640625,2789.138425Q3044.21114640625,2852.813225,3013.37927640625,2893.5276249999997Q2702.32202940625,3306.217425,2594.92341640625,3771.612025Q2583.73970040625,3820.540725,2578.55299040625,3846.999725Q2570.68365140625,3887.143525,2565.70995340625,3926.993425Q2555.05292540625,4012.378625,2550.53485140625,4166.542925Q2546.12326840625,4317.073525,2544.35449240625,4642.008525Q2543.1801684062502,4857.738325,2541.86801140625,5514.697525L2541.86763740625,5514.886425000001L2541.86725640625,5515.0752250000005L2541.86688240625,5515.263925L2541.86650040625,5515.452925L2541.86612740625,5515.641625L2541.86575340625,5515.830524999999L2541.8653714062502,5516.019325L2541.86499740625,5516.208225L2541.86461640625,5516.397225000001L2541.86424240625,5516.586225L2541.86386140625,5516.775125L2541.86348740625,5516.964125L2541.86310540625,5517.153125L2541.86273240625,5517.342025L2541.86235040625,5517.531025L2541.86214440625,5517.6521250000005L2537.81977040625,6947.641125L2569.72243540625,7032.695825Q2615.45577240625,7159.541025,2707.50302840625,7253.608925Q2801.04836640625,7349.207525,2918.81677640625,7386.965325Q2938.23147640625,7393.192825,2966.98962640625,7396.117225Q2995.36895640625,7399.002925,3050.41775640625,7400.823225Q3164.39025640625,7404.591325,3487.56402640625,7406.257825ZM9895.93851640625,7245.879925L6453.88551640625,7244.883825L6453.86181640625,7244.883825Q3997.3320164062497,7244.883825,3488.40960640625,7242.259725Q3167.50524640625,7240.605025,3055.83712640625,7236.913125Q2980.15731640625,7234.410625,2968.90685640625,7230.802225Q2889.8327364062498,7205.450225,2824.72061640625,7138.908725Q2757.63072640625,7070.346225,2724.00119640625,6977.071825L2701.90384640625,6918.130325L2705.86148840625,5518.115525L2705.86203040625,5517.858625L2705.86241140625,5517.669725L2705.86278540625,5517.480724999999L2705.86316640625,5517.291725L2705.86354040625,5517.102825L2705.86392240625,5516.913825L2705.86429640625,5516.724824999999L2705.86467740625,5516.535925L2705.86505140625,5516.346925L2705.86543240625,5516.158225L2705.86580640625,5515.969225L2705.86618040625,5515.780525L2705.86656140625,5515.591525L2705.86693540625,5515.402825L2705.86731740625,5515.214125L2705.86769140625,5515.025125Q2707.17929040625,4858.347425,2708.35206640625,4642.901125Q2710.11019940625,4319.921824999999,2714.46446240625,4171.347125Q2718.75447040625,4024.965125,2728.44730640625,3947.304925Q2732.71585640625,3913.104725,2739.48995640625,3878.548125Q2744.18530640625,3854.595725,2754.80021640625,3808.155525Q2854.27978640625,3377.078125,3144.34435640625,2992.240025Q3170.32507640625,2957.932525,3223.47057640625,2899.910425Q3275.01440640625,2843.636925,3338.30657640625,2780.1544249999997Q3401.81762640625,2716.452425,3458.87353640625,2663.836425Q3518.18279640625,2609.142455,3554.91564640625,2580.8345950000003Q3685.08491640625,2481.3803749999997,3859.50561640625,2377.299865Q4035.56771640625,2272.239865,4194.92191640625,2199.475405Q4369.37861640625,2119.911465,4573.69211640625,2049.857145Q4776.11281640625,1980.451875,4997.01021640625,1924.088105Q5448.62451640625,1808.855175,5901.849816406249,1764.493795Q6347.814916406251,1720.78624,6785.88871640625,1742.037476Q7224.18211640625,1763.299375,7623.84231640625,1848.098085L7641.84371640625,1851.798845L7753.01711640625,1875.134975Q7814.20411640625,1887.082305,7983.24171640625,1933.572995Q8156.11421640625,1981.118405,8232.06351640625,2007.381255Q8656.29001640625,2149.777285,8986.869116406251,2339.045775Q9315.25631640625,2527.059205,9560.57961640625,2766.558825Q9855.08351640625,3052.358325,9996.29831640625,3339.111125Q10040.26461640625,3429.2073250000003,10088.28951640625,3563.284925Q10136.67431640625,3698.3678250000003,10157.93111640625,3791.188525Q10158.61331640625,3794.098625,10159.79931640625,3799.146725Q10172.73141640625,3854.183825,10177.88771640625,3878.991225Q10185.91061640625,3917.592025,10190.83251640625,3953.498025Q10202.02831640625,4035.173325,10206.47221640625,4181.655025Q10211.01271640625,4331.324425,10211.70211640625,4655.519025Q10212.16311640625,4872.304225,10210.86671640625,5535.263625L10210.86621640625,5535.417225L10210.86621640625,5535.571325L10210.86571640625,5535.724625L10210.86521640625,5535.878425L10210.86521640625,5536.032025L10210.86471640625,5536.185525L10210.86471640625,5536.3396250000005L10210.86381640625,5536.647225000001L10210.86381640625,5536.800825L10210.86331640625,5536.954325000001L10210.86281640625,5537.108125000001L10210.86281640625,5537.261925L10210.86231640625,5537.415725L10210.86231640625,5537.569625L10210.86181640625,5537.723425L10207.89401640625,6927.574225L10188.32761640625,6978.447225Q10150.30371640625,7074.461925,10086.24851640625,7140.799325Q10025.04931640625,7204.178725,9951.687516406251,7227.843725L9895.93851640625,7245.879925ZM6479.66361640625,6634.883825L9348.05321640625,6634.883825L9364.538616406251,6627.190925L9409.538616406251,6606.190925Q9462.25541640625,6581.860825,9512.60251640625,6529.715325Q9563.17431640625,6477.337425,9585.596216406251,6423.320825Q9592.06351640625,6407.900425,9595.37111640625,6385.369125Q9597.88081640625,6368.272425,9599.551716406251,6341.009725Q9602.715316406251,6289.396025,9604.35401640625,6172.407225Q9607.10981640625,5975.655225,9607.86181640625,5253.969225Q9608.60301640625,4651.992725,9606.23341640625,4383.659625Q9603.88041640625,4117.208025,9596.74611640625,4074.403125Q9555.69921640625,3851.735325,9482.57811640625,3685.0649249999997Q9408.56791640625,3516.3675249999997,9282.67141640625,3360.3828249999997Q9185.44971640625,3239.938725,9050.497516406249,3126.681725Q8918.05811640625,3015.5339249999997,8753.77101640625,2915.0550249999997Q8422.83201640625,2712.651325,8001.49511640625,2573.993165Q7692.03121640625,2472.105895,7348.60891640625,2415.069945Q7009.76071640625,2358.793765,6652.21191640625,2348.542485Q6295.22391640625,2338.307315,5935.36551640625,2374.402585Q5571.84281640625,2410.865415,5221.152616406251,2493.046635Q5061.8589164062505,2530.393065,4930.195316406251,2572.386045Q4799.85201640625,2613.957945,4644.14961640625,2676.8525250000002Q4326.51371640625,2804.980925,4067.70731640625,2973.690325Q3805.53671640625,3144.592625,3658.7518164062503,3321.5279250000003Q3592.62518640625,3401.037225,3534.40844640625,3496.457125Q3477.65429640625,3589.479725,3432.56945640625,3690.796225Q3387.4694164062503,3792.146925,3357.57928640625,3893.857425Q3326.85949640625,3998.391125,3314.51568640625,4095.548825Q3309.52880640625,4131.243625,3304.62048640625,4468.691124999999Q3299.92907640625,4791.224625,3296.86364640625,5253.339825Q3292.38610640625,6002.569825,3294.1159664062498,6174.832025Q3295.1956764062497,6282.350625,3298.79113640625,6329.066925Q3302.22363640625,6373.666025,3311.91216640625,6403.336925Q3342.63067640625,6494.512725,3410.83556640625,6553.521525Q3480.71911640625,6613.982425,3573.38885640625,6627.077125L3578.99835640625,6627.869625L6479.66361640625,6634.883825ZM9311.66991640625,6470.883825L6480.06001640625,6470.883825L3591.2830164062498,6463.898925Q3549.60095640625,6456.716825,3518.13806640625,6429.496125Q3483.76129640625,6399.754425,3467.81146640625,6352.430625Q3464.23010640625,6341.462925,3462.30749640625,6316.481925Q3459.13232640625,6275.227025,3458.1076664062502,6173.185525Q3456.39105640625,6002.238325,3460.85998640625,5254.427725Q3463.9210864062497,4792.969525,3468.60314640625,4471.076425Q3473.36327640625,4143.816425,3477.20794640625,4116.218725000001Q3487.90026640625,4032.059825,3514.92559640625,3940.097625Q3541.73992640625,3848.853525,3582.40417640625,3757.471225Q3623.17771640625,3665.843225,3674.40891640625,3581.8729249999997Q3726.3813164062503,3496.687725,3784.9718164062497,3426.239625Q3849.29731640625,3348.701325,3943.59481640625,3268.829925Q4038.22291640625,3188.6787249999998,4157.266316406251,3111.077225Q4402.68551640625,2951.094825,4705.57401640625,2828.915125Q4855.55981640625,2768.329825,4980.028316406249,2728.631625Q5105.56051640625,2688.594125,5258.571016406249,2652.720945Q5598.85111640625,2572.979245,5951.73311640625,2537.583745Q6301.081816406249,2502.542605,6647.51171640625,2512.475095Q6993.90331640625,2522.406495,7321.73971640625,2576.853885Q7652.72121640625,2631.823605,7950.22851640625,2729.774425Q8353.494116406251,2862.4856250000003,8668.20261640625,3054.962525Q8822.02541640625,3149.041225,8945.069816406249,3252.304525Q9067.83401640625,3355.3329249999997,9155.05221640625,3463.384725Q9267.18801640625,3602.320225,9332.39551640625,3750.952625Q9397.86961640625,3900.192125,9434.97751640625,4101.364525Q9445.205616406249,4162.731925,9443.86181640625,5253.798325Q9443.11131640625,5974.393025,9440.36961640625,6170.110325Q9438.78471640625,6283.246625,9435.859416406249,6330.976525Q9434.61281640625,6351.315925,9433.11031640625,6361.550825Q9432.94771640625,6362.656725,9432.812516406251,6363.474125Q9421.89161640625,6387.558125,9394.62111640625,6415.802225Q9365.624016406251,6445.834925,9340.185016406249,6457.576625L9311.66991640625,6470.883825Z" fill-rule="evenodd" fill="#000000" fill-opacity="1"/></g></g></svg>